<?xml version="1.0" encoding="UTF-8" standalone="no"?>
<svg
   width="1600"
   height="900"
   viewBox="0 0 1600 900"
   version="1.1"
   id="svg62"
   xmlns="http://www.w3.org/2000/svg"
   xmlns:svg="http://www.w3.org/2000/svg">
  <defs
     id="defs66" />
  <title
     id="title2">Design the information flow before the dashboard</title>
  <rect
     width="1600"
     height="900"
     fill="#0B1F44"
     id="rect4" />
  <path
     d="M80,120 C520,120 640,450 1000,450"
     fill="none"
     stroke="#8FA3C7"
     stroke-width="3"
     stroke-linecap="round"
     stroke-linejoin="round"
     opacity="0.9"
     id="path6" />
  <circle
     cx="80.0"
     cy="120.0"
     r="9.0"
     fill="#8FA3C7"
     id="circle8" />
  <path
     d="M80,200 C520,200 640,450 1000,450"
     fill="none"
     stroke="#FFFFFF"
     stroke-width="3"
     stroke-linecap="round"
     stroke-linejoin="round"
     opacity="0.9"
     id="path10" />
  <circle
     cx="80.0"
     cy="200.0"
     r="9.0"
     fill="#8FA3C7"
     id="circle12" />
  <path
     d="M80,280 C520,280 640,450 1000,450"
     fill="none"
     stroke="#FFFFFF"
     stroke-width="3"
     stroke-linecap="round"
     stroke-linejoin="round"
     opacity="0.9"
     id="path14" />
  <circle
     cx="80.0"
     cy="280.0"
     r="9.0"
     fill="#8FA3C7"
     id="circle16" />
  <path
     d="M80,360 C520,360 640,450 1000,450"
     fill="none"
     stroke="#8FA3C7"
     stroke-width="3"
     stroke-linecap="round"
     stroke-linejoin="round"
     opacity="0.9"
     id="path18" />
  <circle
     cx="80.0"
     cy="360.0"
     r="9.0"
     fill="#8FA3C7"
     id="circle20" />
  <path
     d="M80,440 C520,440 640,450 1000,450"
     fill="none"
     stroke="#FFFFFF"
     stroke-width="3"
     stroke-linecap="round"
     stroke-linejoin="round"
     opacity="0.9"
     id="path22" />
  <circle
     cx="80.0"
     cy="440.0"
     r="9.0"
     fill="#8FA3C7"
     id="circle24" />
  <path
     d="M80,520 C520,520 640,450 1000,450"
     fill="none"
     stroke="#FFFFFF"
     stroke-width="3"
     stroke-linecap="round"
     stroke-linejoin="round"
     opacity="0.9"
     id="path26" />
  <circle
     cx="80.0"
     cy="520.0"
     r="9.0"
     fill="#8FA3C7"
     id="circle28" />
  <path
     d="M80,600 C520,600 640,450 1000,450"
     fill="none"
     stroke="#8FA3C7"
     stroke-width="3"
     stroke-linecap="round"
     stroke-linejoin="round"
     opacity="0.9"
     id="path30" />
  <circle
     cx="80.0"
     cy="600.0"
     r="9.0"
     fill="#8FA3C7"
     id="circle32" />
  <path
     d="M80,680 C520,680 640,450 1000,450"
     fill="none"
     stroke="#FFFFFF"
     stroke-width="3"
     stroke-linecap="round"
     stroke-linejoin="round"
     opacity="0.9"
     id="path34" />
  <circle
     cx="80.0"
     cy="680.0"
     r="9.0"
     fill="#8FA3C7"
     id="circle36" />
  <path
     d="M80,760 C520,760 640,450 1000,450"
     fill="none"
     stroke="#FFFFFF"
     stroke-width="3"
     stroke-linecap="round"
     stroke-linejoin="round"
     opacity="0.9"
     id="path38" />
  <circle
     cx="80.0"
     cy="760.0"
     r="9.0"
     fill="#8FA3C7"
     id="circle40" />
  <circle
     cx="780.0"
     cy="450.0"
     r="6.0"
     fill="#F4A62A"
     id="circle42" />
  <circle
     cx="860.0"
     cy="450.0"
     r="8.5"
     fill="#F4A62A"
     id="circle44" />
  <circle
     cx="940.0"
     cy="450.0"
     r="11.0"
     fill="#F4A62A"
     id="circle46" />
  <rect
     x="1030.0"
     y="300.0"
     width="470.0"
     height="300.0"
     rx="22"
     fill="#13295A"
     stroke="#2A4272"
     stroke-width="2"
     id="rect48" />
  <rect
     x="1070.0"
     y="470.0"
     width="36.0"
     height="90.0"
     rx="6"
     fill="#FFFFFF"
     id="rect50" />
  <rect
     x="1130.0"
     y="420.0"
     width="36.0"
     height="140.0"
     rx="6"
     fill="#FFFFFF"
     id="rect52" />
  <rect
     x="1190.0"
     y="450.0"
     width="36.0"
     height="110.0"
     rx="6"
     fill="#FFFFFF"
     id="rect54" />
  <rect
     x="1250.0"
     y="370.0"
     width="36.0"
     height="190.0"
     rx="6"
     fill="#F4A62A"
     id="rect56" />
  <rect
     x="1330.0"
     y="340.0"
     width="130.0"
     height="60.0"
     rx="10"
     fill="#16305F"
     id="rect58" />
  <rect
     x="1330.0"
     y="420.0"
     width="130.0"
     height="60.0"
     rx="10"
     fill="#16305F"
     id="rect60" />
</svg>
