<?xml version="1.0" encoding="UTF-8" standalone="no"?>
<svg
   width="1920"
   height="1080"
   viewBox="0 0 1920 1080"
   version="1.1"
   id="svg74"
   xmlns="http://www.w3.org/2000/svg"
   xmlns:svg="http://www.w3.org/2000/svg">
  <defs
     id="defs78" />
  <rect
     width="1920"
     height="1080"
     fill="#0B1F44"
     id="rect2" />
  <path
     d="M0,220 C480,100 960,340 1920,80"
     fill="none"
     stroke="#3B5285"
     stroke-width="1.4"
     stroke-linecap="round"
     stroke-linejoin="round"
     opacity="0.45"
     id="path4" />
  <path
     d="M0,260 C480,140 960,380 1920,120"
     fill="none"
     stroke="#3B5285"
     stroke-width="1.4"
     stroke-linecap="round"
     stroke-linejoin="round"
     opacity="0.45"
     id="path6" />
  <path
     d="M0,300 C480,180 960,420 1920,160"
     fill="none"
     stroke="#3B5285"
     stroke-width="1.4"
     stroke-linecap="round"
     stroke-linejoin="round"
     opacity="0.45"
     id="path8" />
  <path
     d="M0,340 C480,220 960,460 1920,200"
     fill="none"
     stroke="#3B5285"
     stroke-width="1.4"
     stroke-linecap="round"
     stroke-linejoin="round"
     opacity="0.45"
     id="path10" />
  <path
     d="M0,380 C480,260 960,500 1920,240"
     fill="none"
     stroke="#3B5285"
     stroke-width="1.4"
     stroke-linecap="round"
     stroke-linejoin="round"
     opacity="0.45"
     id="path12" />
  <path
     d="M0,420 C480,300 960,540 1920,280"
     fill="none"
     stroke="#3B5285"
     stroke-width="1.4"
     stroke-linecap="round"
     stroke-linejoin="round"
     opacity="0.45"
     id="path14" />
  <path
     d="M0,460 C480,340 960,580 1920,320"
     fill="none"
     stroke="#3B5285"
     stroke-width="1.4"
     stroke-linecap="round"
     stroke-linejoin="round"
     opacity="0.45"
     id="path16" />
  <path
     d="M0,500 C480,380 960,620 1920,360"
     fill="none"
     stroke="#3B5285"
     stroke-width="1.4"
     stroke-linecap="round"
     stroke-linejoin="round"
     opacity="0.45"
     id="path18" />
  <path
     d="M0,540 C480,420 960,660 1920,400"
     fill="none"
     stroke="#3B5285"
     stroke-width="1.4"
     stroke-linecap="round"
     stroke-linejoin="round"
     opacity="0.45"
     id="path20" />
  <path
     d="M0,580 C480,460 960,700 1920,440"
     fill="none"
     stroke="#3B5285"
     stroke-width="1.4"
     stroke-linecap="round"
     stroke-linejoin="round"
     opacity="0.45"
     id="path22" />
  <path
     d="M0,620 C480,500 960,740 1920,480"
     fill="none"
     stroke="#3B5285"
     stroke-width="1.4"
     stroke-linecap="round"
     stroke-linejoin="round"
     opacity="0.45"
     id="path24" />
  <path
     d="M0,660 C480,540 960,780 1920,520"
     fill="none"
     stroke="#3B5285"
     stroke-width="1.4"
     stroke-linecap="round"
     stroke-linejoin="round"
     opacity="0.45"
     id="path26" />
  <path
     d="M0,700 C480,580 960,820 1920,560"
     fill="none"
     stroke="#3B5285"
     stroke-width="1.4"
     stroke-linecap="round"
     stroke-linejoin="round"
     opacity="0.45"
     id="path28" />
  <path
     d="M0,740 C480,620 960,860 1920,600"
     fill="none"
     stroke="#3B5285"
     stroke-width="1.4"
     stroke-linecap="round"
     stroke-linejoin="round"
     opacity="0.45"
     id="path30" />
  <path
     d="M0,780 C480,660 960,900 1920,640"
     fill="none"
     stroke="#3B5285"
     stroke-width="1.4"
     stroke-linecap="round"
     stroke-linejoin="round"
     opacity="0.45"
     id="path32" />
  <path
     d="M0,820 C480,700 960,940 1920,680"
     fill="none"
     stroke="#3B5285"
     stroke-width="1.4"
     stroke-linecap="round"
     stroke-linejoin="round"
     opacity="0.45"
     id="path34" />
  <path
     d="M0,860 C480,740 960,980 1920,720"
     fill="none"
     stroke="#3B5285"
     stroke-width="1.4"
     stroke-linecap="round"
     stroke-linejoin="round"
     opacity="0.45"
     id="path36" />
  <path
     d="M0,900 C480,780 960,1020 1920,760"
     fill="none"
     stroke="#3B5285"
     stroke-width="1.4"
     stroke-linecap="round"
     stroke-linejoin="round"
     opacity="0.45"
     id="path38" />
  <path
     d="M0,940 C480,820 960,1060 1920,800"
     fill="none"
     stroke="#3B5285"
     stroke-width="1.4"
     stroke-linecap="round"
     stroke-linejoin="round"
     opacity="0.45"
     id="path40" />
  <path
     d="M0,980 C480,860 960,1100 1920,840"
     fill="none"
     stroke="#3B5285"
     stroke-width="1.4"
     stroke-linecap="round"
     stroke-linejoin="round"
     opacity="0.45"
     id="path42" />
  <path
     d="M0,1020 C480,900 960,1140 1920,880"
     fill="none"
     stroke="#3B5285"
     stroke-width="1.4"
     stroke-linecap="round"
     stroke-linejoin="round"
     opacity="0.45"
     id="path44" />
  <path
     d="M0,1060 C480,940 960,1180 1920,920"
     fill="none"
     stroke="#3B5285"
     stroke-width="1.4"
     stroke-linecap="round"
     stroke-linejoin="round"
     opacity="0.45"
     id="path46" />
  <path
     d="M0,1100 C480,980 960,1220 1920,960"
     fill="none"
     stroke="#3B5285"
     stroke-width="1.4"
     stroke-linecap="round"
     stroke-linejoin="round"
     opacity="0.45"
     id="path48" />
  <path
     d="M0,1140 C480,1020 960,1260 1920,1000"
     fill="none"
     stroke="#3B5285"
     stroke-width="1.4"
     stroke-linecap="round"
     stroke-linejoin="round"
     opacity="0.45"
     id="path50" />
  <path
     d="M0,1180 C480,1060 960,1300 1920,1040"
     fill="none"
     stroke="#3B5285"
     stroke-width="1.4"
     stroke-linecap="round"
     stroke-linejoin="round"
     opacity="0.45"
     id="path52" />
  <path
     d="M0,1220 C480,1100 960,1340 1920,1080"
     fill="none"
     stroke="#3B5285"
     stroke-width="1.4"
     stroke-linecap="round"
     stroke-linejoin="round"
     opacity="0.45"
     id="path54" />
  <path
     d="M0,1260 C480,1140 960,1380 1920,1120"
     fill="none"
     stroke="#3B5285"
     stroke-width="1.4"
     stroke-linecap="round"
     stroke-linejoin="round"
     opacity="0.45"
     id="path56" />
  <path
     d="M0,1300 C480,1180 960,1420 1920,1160"
     fill="none"
     stroke="#3B5285"
     stroke-width="1.4"
     stroke-linecap="round"
     stroke-linejoin="round"
     opacity="0.45"
     id="path58" />
  <path
     d="M0,1340 C480,1220 960,1460 1920,1200"
     fill="none"
     stroke="#3B5285"
     stroke-width="1.4"
     stroke-linecap="round"
     stroke-linejoin="round"
     opacity="0.45"
     id="path60" />
  <path
     d="M0,1380 C480,1260 960,1500 1920,1240"
     fill="none"
     stroke="#3B5285"
     stroke-width="1.4"
     stroke-linecap="round"
     stroke-linejoin="round"
     opacity="0.45"
     id="path62" />
  <path
     d="M0,1420 C480,1300 960,1540 1920,1280"
     fill="none"
     stroke="#3B5285"
     stroke-width="1.4"
     stroke-linecap="round"
     stroke-linejoin="round"
     opacity="0.45"
     id="path64" />
  <path
     d="M0,1460 C480,1340 960,1580 1920,1320"
     fill="none"
     stroke="#3B5285"
     stroke-width="1.4"
     stroke-linecap="round"
     stroke-linejoin="round"
     opacity="0.45"
     id="path66" />
  <g
     transform="matrix(4.3431,0,0,4.3431,1096.88,379.83)"
     opacity="0.05"
     id="g72">
    <path
       d="m 153.283,107.515 c -2.809,-4.31 -3.715,-6.993 -7.658,-10.8 C 134.947,86.405 117.507,79.55 103.875,73.783 74.98,61.559 38.747,46.791 24.478,16.997 c 7.6,5.066 12.402,8.857 21.022,12.574 21.333,9.2 53.553,12.183 76.875,14.03 8.216,0.65 18.741,1.207 26.75,2.619 27.002,4.76 46.2,18.722 59.118,42.905 6.807,12.743 12.131,32.314 11.054,46.665 -3.605,-4.34 -6.034,-8.403 -10.047,-12.345 -10.881,-10.69 -27.601,-16.213 -42.625,-16.648 -4.085,-0.118 -9.213,0.412 -13.342,0.718 z"
       fill="#f4a62a"
       id="path68" />
    <path
       d="m 91.304,188.847 c -0.778,-3.879 -1.068,-7.438 -1.722,-11.222 -1.903,-11.027 -4.833,-20.941 -9.182,-31.25 -5.122,-12.138 -12.216,-24.243 -19.809,-35 C 43.818,87.61 28.332,73.721 18.851,44.5 15.745,34.928 13.953,23.897 14.706,13.854 18.895,21.3 21.456,26.866 26.587,34 c 19.428,27.014 51.132,40.055 80.538,53.515 10.736,4.915 21.189,10.026 29.844,18.166 12.499,14.631 9.48,30.662 -1.1,45.319 -0.828,1.147 -4.283,5.611 -5.494,5.83 -0.098,0.018 -0.186,0.023 -0.266,0.017 l 0.05,-8.764 c 0.052,-8.964 -5.5,-15.841 -11.673,-21.707 -2.434,-2.313 -5.003,-4.506 -7.565,-6.676 -3.924,-3.324 -7.872,-6.617 -11.557,-10.211 l -3.541,-3.454 c 0.513,-1.204 0.797,-2.53 0.797,-3.922 0,-5.53 -4.482,-10.013 -10.012,-10.013 -5.529,0 -10.012,4.483 -10.012,10.013 0,5.529 4.483,10.012 10.012,10.012 1.482,0 2.888,-0.322 4.153,-0.899 l 3.542,3.453 c 3.489,3.403 7.19,6.542 10.908,9.687 2.496,2.111 5.012,4.23 7.411,6.45 1.652,1.529 3.276,3.132 4.75,4.834 3.061,3.535 5.565,7.567 5.538,12.392 l -0.053,9.137 c -0.302,1.616 -0.668,3.209 -1.22,4.821 -4.076,11.887 -18.321,23.884 -30.333,26.847 z m -1.827,-86.734 c 0,1.584 -1.284,2.869 -2.869,2.869 -1.584,0 -2.869,-1.285 -2.869,-2.869 0,-1.585 1.285,-2.869 2.869,-2.869 1.585,0 2.869,1.284 2.869,2.869 z"
       fill="#ffffff"
       id="path70" />
  </g>
</svg>
